<svg width="17" height="14" viewBox="0 0 17 14" fill="none" xmlns="http://www.w3.org/2000/svg">
  <path fill-rule="evenodd" clip-rule="evenodd"
    d="M15.0262 0.157789C15.0396 0.15181 16.2002 -0.363648 16.2206 0.501539L13.6493 13.4185C13.6493 13.4185 13.2849 14.3092 12.3134 13.8844L8.66882 11.0904L6.32019 13.2164C6.31252 13.2222 6.13348 13.3562 5.93542 13.2769C5.92766 13.2758 5.74866 13.2419 5.55066 12.5885C5.32913 11.9037 4.24762 8.35758 4.23523 8.31697L0.611206 7.10212C0.611206 7.10212 0.064521 6.89935 0.00378393 6.4742C-0.0568692 6.04908 0.631714 5.80623 0.631714 5.80623L15.0262 0.157789ZM13.4266 2.78962C13.4467 2.48899 12.9512 2.78368 12.9413 2.78962L4.98425 7.85115C4.86297 7.93216 4.82269 8.0735 4.86316 8.1949L5.81433 11.3131C5.87519 11.4951 6.13811 11.4744 6.17859 11.272L6.40124 9.3697C6.40124 9.28873 6.44208 9.22758 6.50281 9.18709C7.27214 8.49873 13.002 3.35582 13.245 3.11287C13.5077 2.82981 13.4266 2.78962 13.4266 2.78962Z"
    fill="white" />
</svg>